# xmcd
#
# Track frame offsets: 
#        150
#        17340
#        31155
#        60075
#        75447
#        87837
#        99482
#        113744
#        125982
#        150345
#        163645
#        175583
#        187938
#        202920
#        216250
#        240030
#        255363
#        268550
#
# Disc length: 3755 seconds
#
# Revision: 1
# Processed by: cddbd v1.5.2PL0 Copyright (c) Steve Scherf et al.
# Submitted via: ExactAudioCopy v1.0b3
#
DISCID=c60ea912
DTITLE=Various Artist - First Time I Met The Blues
DYEAR=2007
DGENRE=Blues
TTITLE0=Buddy Guy - We're Ready
TTITLE1=Buddy Guy - This Is The End
TTITLE2=Buddy Guy - First Time I Met The Blues
TTITLE3=Buddy Guy and Junior Wells - Hoodoo Man
TTITLE4=Buddy Guy - You Sure Can't Do
TTITLE5=Junior Wells - Cha Cha In Blues
TTITLE6=Buddy Guy - Sit And Cry
TTITLE7=Junior Wells - Little By Little
TTITLE8=Buddy Guy and Junior Wells - Country Girl
TTITLE9=Junior Wells - I Could Cry
TTITLE10=Buddy Guy - Try To Quit You
TTITLE11=Buddy Guy - Lawdy! Lawdy!
TTITLE12=Junior Wells - 'Bout The Break Of Day
TTITLE13=Junior Wells - Junior's Wail
TTITLE14=Buddy Guy and Junior Wells - In My Younger Days
TTITLE15=Junior Wells - So All Alone
TTITLE16=Junior Wells - Cut That Out
TTITLE17=Buddy Guy - We're Ready - Finale
EXTD=
EXTT0=
EXTT1=
EXTT2=
EXTT3=
EXTT4=
EXTT5=
EXTT6=
EXTT7=
EXTT8=
EXTT9=
EXTT10=
EXTT11=
EXTT12=
EXTT13=
EXTT14=
EXTT15=
EXTT16=
EXTT17=
PLAYORDER=
